STARTFONT 2.1
FONT -FontForge-TinyUnicode-Medium-R-Normal--16-150-75-75-P-48-ISO10646-1
SIZE 15 75 75
FONTBOUNDINGBOX 10 13 0 -2
COMMENT "Generated by fontforge, http://fontforge.sourceforge.net"
COMMENT "DuffsDevice"
STARTPROPERTIES 39
FOUNDRY "FontForge"
FAMILY_NAME "TinyUnicode"
WEIGHT_NAME "Medium"
SLANT "R"
SETWIDTH_NAME "Normal"
ADD_STYLE_NAME ""
PIXEL_SIZE 16
POINT_SIZE 150
RESOLUTION_X 75
RESOLUTION_Y 75
SPACING "P"
AVERAGE_WIDTH 48
CHARSET_REGISTRY "ISO10646"
CHARSET_ENCODING "1"
FONTNAME_REGISTRY ""
CHARSET_COLLECTIONS "ISO8859-4 ISO10646-1"
FONT_NAME "TinyUnicode"
FACE_NAME "TinyUnicode"
COPYRIGHT "DuffsDevice"
FONT_VERSION "001.000"
FONT_ASCENT 12
FONT_DESCENT 4
UNDERLINE_POSITION -2
UNDERLINE_THICKNESS 1
X_HEIGHT 3
CAP_HEIGHT 4
RAW_ASCENT 750
RAW_DESCENT 250
NORM_SPACE 5
RELATIVE_WEIGHT 50
RELATIVE_SETWIDTH 50
SUPERSCRIPT_X 0
SUPERSCRIPT_Y 7
SUPERSCRIPT_SIZE 11
SUBSCRIPT_X 0
SUBSCRIPT_Y 2
SUBSCRIPT_SIZE 11
AVG_LOWERCASE_WIDTH 48
AVG_UPPERCASE_WIDTH 48
ENDPROPERTIES
CHARS 276
STARTCHAR space
ENCODING 32
SWIDTH 312 0
DWIDTH 5 0
BBX 1 1 0 0
BITMAP
00
ENDCHAR
STARTCHAR exclam
ENCODING 33
SWIDTH 125 0
DWIDTH 2 0
BBX 1 5 0 0
BITMAP
80
80
80
00
80
ENDCHAR
STARTCHAR quotedbl
ENCODING 34
SWIDTH 250 0
DWIDTH 4 0
BBX 3 2 0 4
BITMAP
A0
A0
ENDCHAR
STARTCHAR numbersign
ENCODING 35
SWIDTH 375 0
DWIDTH 6 0
BBX 5 5 0 0
BITMAP
28
50
F8
50
A0
ENDCHAR
STARTCHAR dollar
ENCODING 36
SWIDTH 312 0
DWIDTH 5 0
BBX 4 6 0 -1
BITMAP
40
70
C0
30
E0
20
ENDCHAR
STARTCHAR percent
ENCODING 37
SWIDTH 250 0
DWIDTH 4 0
BBX 3 5 0 0
BITMAP
A0
20
40
80
A0
ENDCHAR
STARTCHAR ampersand
ENCODING 38
SWIDTH 375 0
DWIDTH 6 0
BBX 5 5 0 0
BITMAP
60
80
68
90
68
ENDCHAR
STARTCHAR quotesingle
ENCODING 39
SWIDTH 125 0
DWIDTH 2 0
BBX 1 2 0 4
BITMAP
80
80
ENDCHAR
STARTCHAR parenleft
ENCODING 40
SWIDTH 187 0
DWIDTH 3 0
BBX 2 7 0 -1
BITMAP
40
80
80
80
80
80
40
ENDCHAR
STARTCHAR parenright
ENCODING 41
SWIDTH 187 0
DWIDTH 3 0
BBX 2 7 0 -1
BITMAP
80
40
40
40
40
40
80
ENDCHAR
STARTCHAR asterisk
ENCODING 42
SWIDTH 250 0
DWIDTH 4 0
BBX 3 3 0 3
BITMAP
A0
40
A0
ENDCHAR
STARTCHAR plus
ENCODING 43
SWIDTH 250 0
DWIDTH 4 0
BBX 3 3 0 1
BITMAP
40
E0
40
ENDCHAR
STARTCHAR comma
ENCODING 44
SWIDTH 187 0
DWIDTH 3 0
BBX 2 2 0 -1
BITMAP
40
80
ENDCHAR
STARTCHAR hyphen
ENCODING 45
SWIDTH 250 0
DWIDTH 4 0
BBX 3 1 0 2
BITMAP
E0
ENDCHAR
STARTCHAR period
ENCODING 46
SWIDTH 125 0
DWIDTH 2 0
BBX 1 1 0 0
BITMAP
80
ENDCHAR
STARTCHAR slash
ENCODING 47
SWIDTH 250 0
DWIDTH 4 0
BBX 3 5 0 0
BITMAP
20
20
40
80
80
ENDCHAR
STARTCHAR zero
ENCODING 48
SWIDTH 312 0
DWIDTH 5 0
BBX 4 5 0 0
BITMAP
60
90
90
90
60
ENDCHAR
STARTCHAR one
ENCODING 49
SWIDTH 187 0
DWIDTH 3 0
BBX 2 5 0 0
BITMAP
40
C0
40
40
40
ENDCHAR
STARTCHAR two
ENCODING 50
SWIDTH 312 0
DWIDTH 5 0
BBX 4 5 0 0
BITMAP
60
90
20
40
F0
ENDCHAR
STARTCHAR three
ENCODING 51
SWIDTH 312 0
DWIDTH 5 0
BBX 4 5 0 0
BITMAP
E0
10
70
10
E0
ENDCHAR
STARTCHAR four
ENCODING 52
SWIDTH 312 0
DWIDTH 5 0
BBX 4 5 0 0
BITMAP
20
60
A0
F0
20
ENDCHAR
STARTCHAR five
ENCODING 53
SWIDTH 312 0
DWIDTH 5 0
BBX 4 5 0 0
BITMAP
F0
80
E0
10
E0
ENDCHAR
STARTCHAR six
ENCODING 54
SWIDTH 312 0
DWIDTH 5 0
BBX 4 5 0 0
BITMAP
60
80
E0
90
60
ENDCHAR
STARTCHAR seven
ENCODING 55
SWIDTH 312 0
DWIDTH 5 0
BBX 4 5 0 0
BITMAP
F0
10
20
40
40
ENDCHAR
STARTCHAR eight
ENCODING 56
SWIDTH 312 0
DWIDTH 5 0
BBX 4 5 0 0
BITMAP
60
90
60
90
60
ENDCHAR
STARTCHAR nine
ENCODING 57
SWIDTH 312 0
DWIDTH 5 0
BBX 4 5 0 0
BITMAP
60
90
70
10
60
ENDCHAR
STARTCHAR colon
ENCODING 58
SWIDTH 125 0
DWIDTH 2 0
BBX 1 3 0 0
BITMAP
80
00
80
ENDCHAR
STARTCHAR semicolon
ENCODING 59
SWIDTH 187 0
DWIDTH 3 0
BBX 2 4 0 -1
BITMAP
40
00
40
80
ENDCHAR
STARTCHAR less
ENCODING 60
SWIDTH 187 0
DWIDTH 3 0
BBX 2 3 0 1
BITMAP
40
80
40
ENDCHAR
STARTCHAR equal
ENCODING 61
SWIDTH 312 0
DWIDTH 5 0
BBX 4 3 0 1
BITMAP
F0
00
F0
ENDCHAR
STARTCHAR greater
ENCODING 62
SWIDTH 187 0
DWIDTH 3 0
BBX 2 3 0 1
BITMAP
80
40
80
ENDCHAR
STARTCHAR question
ENCODING 63
SWIDTH 312 0
DWIDTH 5 0
BBX 4 5 0 0
BITMAP
E0
10
60
00
40
ENDCHAR
STARTCHAR at
ENCODING 64
SWIDTH 500 0
DWIDTH 8 0
BBX 7 7 0 -1
BITMAP
3C
42
9A
AA
9C
40
3C
ENDCHAR
STARTCHAR A
ENCODING 65
SWIDTH 312 0
DWIDTH 5 0
BBX 4 5 0 0
BITMAP
60
90
F0
90
90
ENDCHAR
STARTCHAR B
ENCODING 66
SWIDTH 312 0
DWIDTH 5 0
BBX 4 5 0 0
BITMAP
E0
90
E0
90
E0
ENDCHAR
STARTCHAR C
ENCODING 67
SWIDTH 250 0
DWIDTH 4 0
BBX 3 5 0 0
BITMAP
60
80
80
80
60
ENDCHAR
STARTCHAR D
ENCODING 68
SWIDTH 312 0
DWIDTH 5 0
BBX 4 5 0 0
BITMAP
E0
90
90
90
E0
ENDCHAR
STARTCHAR E
ENCODING 69
SWIDTH 250 0
DWIDTH 4 0
BBX 3 5 0 0
BITMAP
E0
80
C0
80
E0
ENDCHAR
STARTCHAR F
ENCODING 70
SWIDTH 250 0
DWIDTH 4 0
BBX 3 5 0 0
BITMAP
E0
80
E0
80
80
ENDCHAR
STARTCHAR G
ENCODING 71
SWIDTH 312 0
DWIDTH 5 0
BBX 4 5 0 0
BITMAP
70
80
B0
90
70
ENDCHAR
STARTCHAR H
ENCODING 72
SWIDTH 312 0
DWIDTH 5 0
BBX 4 5 0 0
BITMAP
90
90
F0
90
90
ENDCHAR
STARTCHAR I
ENCODING 73
SWIDTH 250 0
DWIDTH 4 0
BBX 3 5 0 0
BITMAP
E0
40
40
40
E0
ENDCHAR
STARTCHAR J
ENCODING 74
SWIDTH 312 0
DWIDTH 5 0
BBX 4 5 0 0
BITMAP
70
10
10
90
60
ENDCHAR
STARTCHAR K
ENCODING 75
SWIDTH 312 0
DWIDTH 5 0
BBX 4 5 0 0
BITMAP
90
A0
C0
A0
90
ENDCHAR
STARTCHAR L
ENCODING 76
SWIDTH 250 0
DWIDTH 4 0
BBX 3 5 0 0
BITMAP
80
80
80
80
E0
ENDCHAR
STARTCHAR M
ENCODING 77
SWIDTH 375 0
DWIDTH 6 0
BBX 5 5 0 0
BITMAP
88
D8
A8
88
88
ENDCHAR
STARTCHAR N
ENCODING 78
SWIDTH 312 0
DWIDTH 5 0
BBX 4 5 0 0
BITMAP
90
D0
B0
90
90
ENDCHAR
STARTCHAR O
ENCODING 79
SWIDTH 312 0
DWIDTH 5 0
BBX 4 5 0 0
BITMAP
60
90
90
90
60
ENDCHAR
STARTCHAR P
ENCODING 80
SWIDTH 312 0
DWIDTH 5 0
BBX 4 5 0 0
BITMAP
E0
90
E0
80
80
ENDCHAR
STARTCHAR Q
ENCODING 81
SWIDTH 312 0
DWIDTH 5 0
BBX 4 6 0 -1
BITMAP
60
90
90
90
60
10
ENDCHAR
STARTCHAR R
ENCODING 82
SWIDTH 312 0
DWIDTH 5 0
BBX 4 5 0 0
BITMAP
E0
90
90
E0
90
ENDCHAR
STARTCHAR S
ENCODING 83
SWIDTH 312 0
DWIDTH 5 0
BBX 4 5 0 0
BITMAP
70
80
60
10
E0
ENDCHAR
STARTCHAR T
ENCODING 84
SWIDTH 250 0
DWIDTH 4 0
BBX 3 5 0 0
BITMAP
E0
40
40
40
40
ENDCHAR
STARTCHAR U
ENCODING 85
SWIDTH 312 0
DWIDTH 5 0
BBX 4 5 0 0
BITMAP
90
90
90
90
60
ENDCHAR
STARTCHAR V
ENCODING 86
SWIDTH 312 0
DWIDTH 5 0
BBX 4 5 0 0
BITMAP
90
90
A0
A0
40
ENDCHAR
STARTCHAR W
ENCODING 87
SWIDTH 375 0
DWIDTH 6 0
BBX 5 5 0 0
BITMAP
88
88
A8
A8
50
ENDCHAR
STARTCHAR X
ENCODING 88
SWIDTH 312 0
DWIDTH 5 0
BBX 4 5 0 0
BITMAP
90
90
60
90
90
ENDCHAR
STARTCHAR Y
ENCODING 89
SWIDTH 312 0
DWIDTH 5 0
BBX 4 5 0 0
BITMAP
90
90
70
10
60
ENDCHAR
STARTCHAR Z
ENCODING 90
SWIDTH 250 0
DWIDTH 4 0
BBX 3 5 0 0
BITMAP
E0
20
40
80
E0
ENDCHAR
STARTCHAR bracketleft
ENCODING 91
SWIDTH 187 0
DWIDTH 3 0
BBX 2 6 0 -1
BITMAP
C0
80
80
80
80
C0
ENDCHAR
STARTCHAR backslash
ENCODING 92
SWIDTH 250 0
DWIDTH 4 0
BBX 3 5 0 0
BITMAP
80
80
40
20
20
ENDCHAR
STARTCHAR bracketright
ENCODING 93
SWIDTH 187 0
DWIDTH 3 0
BBX 2 6 0 -1
BITMAP
C0
40
40
40
40
C0
ENDCHAR
STARTCHAR asciicircum
ENCODING 94
SWIDTH 250 0
DWIDTH 4 0
BBX 3 2 0 3
BITMAP
40
A0
ENDCHAR
STARTCHAR underscore
ENCODING 95
SWIDTH 375 0
DWIDTH 6 0
BBX 5 1 0 -1
BITMAP
F8
ENDCHAR
STARTCHAR grave
ENCODING 96
SWIDTH 187 0
DWIDTH 3 0
BBX 2 2 0 3
BITMAP
80
40
ENDCHAR
STARTCHAR a
ENCODING 97
SWIDTH 312 0
DWIDTH 5 0
BBX 4 4 0 0
BITMAP
70
90
90
70
ENDCHAR
STARTCHAR b
ENCODING 98
SWIDTH 312 0
DWIDTH 5 0
BBX 4 5 0 0
BITMAP
80
E0
90
90
E0
ENDCHAR
STARTCHAR c
ENCODING 99
SWIDTH 250 0
DWIDTH 4 0
BBX 3 4 0 0
BITMAP
60
80
80
60
ENDCHAR
STARTCHAR d
ENCODING 100
SWIDTH 312 0
DWIDTH 5 0
BBX 4 5 0 0
BITMAP
10
70
90
90
70
ENDCHAR
STARTCHAR e
ENCODING 101
SWIDTH 312 0
DWIDTH 5 0
BBX 4 4 0 0
BITMAP
60
B0
C0
60
ENDCHAR
STARTCHAR f
ENCODING 102
SWIDTH 250 0
DWIDTH 4 0
BBX 3 5 0 0
BITMAP
60
40
E0
40
40
ENDCHAR
STARTCHAR g
ENCODING 103
SWIDTH 312 0
DWIDTH 5 0
BBX 4 6 0 -2
BITMAP
70
90
90
70
10
60
ENDCHAR
STARTCHAR h
ENCODING 104
SWIDTH 312 0
DWIDTH 5 0
BBX 4 5 0 0
BITMAP
80
E0
90
90
90
ENDCHAR
STARTCHAR i
ENCODING 105
SWIDTH 125 0
DWIDTH 2 0
BBX 1 5 0 0
BITMAP
80
00
80
80
80
ENDCHAR
STARTCHAR j
ENCODING 106
SWIDTH 187 0
DWIDTH 3 0
BBX 2 7 0 -2
BITMAP
40
00
40
40
40
40
80
ENDCHAR
STARTCHAR k
ENCODING 107
SWIDTH 312 0
DWIDTH 5 0
BBX 4 5 0 0
BITMAP
80
90
A0
E0
90
ENDCHAR
STARTCHAR l
ENCODING 108
SWIDTH 125 0
DWIDTH 2 0
BBX 1 5 0 0
BITMAP
80
80
80
80
80
ENDCHAR
STARTCHAR m
ENCODING 109
SWIDTH 375 0
DWIDTH 6 0
BBX 5 4 0 0
BITMAP
F0
A8
A8
A8
ENDCHAR
STARTCHAR n
ENCODING 110
SWIDTH 312 0
DWIDTH 5 0
BBX 4 4 0 0
BITMAP
E0
90
90
90
ENDCHAR
STARTCHAR o
ENCODING 111
SWIDTH 312 0
DWIDTH 5 0
BBX 4 4 0 0
BITMAP
60
90
90
60
ENDCHAR
STARTCHAR p
ENCODING 112
SWIDTH 312 0
DWIDTH 5 0
BBX 4 6 0 -2
BITMAP
E0
90
90
E0
80
80
ENDCHAR
STARTCHAR q
ENCODING 113
SWIDTH 312 0
DWIDTH 5 0
BBX 4 6 0 -2
BITMAP
70
90
90
70
10
10
ENDCHAR
STARTCHAR r
ENCODING 114
SWIDTH 250 0
DWIDTH 4 0
BBX 3 4 0 0
BITMAP
A0
C0
80
80
ENDCHAR
STARTCHAR s
ENCODING 115
SWIDTH 312 0
DWIDTH 5 0
BBX 4 4 0 0
BITMAP
70
C0
30
E0
ENDCHAR
STARTCHAR t
ENCODING 116
SWIDTH 250 0
DWIDTH 4 0
BBX 3 5 0 0
BITMAP
40
E0
40
40
60
ENDCHAR
STARTCHAR u
ENCODING 117
SWIDTH 312 0
DWIDTH 5 0
BBX 4 4 0 0
BITMAP
90
90
90
70
ENDCHAR
STARTCHAR v
ENCODING 118
SWIDTH 312 0
DWIDTH 5 0
BBX 4 4 0 0
BITMAP
90
90
A0
40
ENDCHAR
STARTCHAR w
ENCODING 119
SWIDTH 375 0
DWIDTH 6 0
BBX 5 4 0 0
BITMAP
88
A8
A8
50
ENDCHAR
STARTCHAR x
ENCODING 120
SWIDTH 250 0
DWIDTH 4 0
BBX 3 4 0 0
BITMAP
A0
40
40
A0
ENDCHAR
STARTCHAR y
ENCODING 121
SWIDTH 312 0
DWIDTH 5 0
BBX 4 6 0 -2
BITMAP
90
90
90
70
10
E0
ENDCHAR
STARTCHAR z
ENCODING 122
SWIDTH 312 0
DWIDTH 5 0
BBX 4 4 0 0
BITMAP
F0
20
40
F0
ENDCHAR
STARTCHAR braceleft
ENCODING 123
SWIDTH 250 0
DWIDTH 4 0
BBX 3 7 0 -1
BITMAP
60
40
40
80
40
40
60
ENDCHAR
STARTCHAR bar
ENCODING 124
SWIDTH 125 0
DWIDTH 2 0
BBX 1 5 0 0
BITMAP
80
80
80
80
80
ENDCHAR
STARTCHAR braceright
ENCODING 125
SWIDTH 250 0
DWIDTH 4 0
BBX 3 7 0 -1
BITMAP
C0
40
40
20
40
40
C0
ENDCHAR
STARTCHAR asciitilde
ENCODING 126
SWIDTH 375 0
DWIDTH 6 0
BBX 5 3 0 1
BITMAP
48
A8
90
ENDCHAR
STARTCHAR uni00A0
ENCODING 160
SWIDTH 312 0
DWIDTH 5 0
BBX 1 1 0 0
BITMAP
00
ENDCHAR
STARTCHAR exclamdown
ENCODING 161
SWIDTH 125 0
DWIDTH 2 0
BBX 1 5 0 -1
BITMAP
80
00
80
80
80
ENDCHAR
STARTCHAR cent
ENCODING 162
SWIDTH 312 0
DWIDTH 5 0
BBX 4 6 0 -1
BITMAP
10
70
A0
A0
70
40
ENDCHAR
STARTCHAR sterling
ENCODING 163
SWIDTH 312 0
DWIDTH 5 0
BBX 4 5 0 0
BITMAP
30
40
60
40
F0
ENDCHAR
STARTCHAR currency
ENCODING 164
SWIDTH 375 0
DWIDTH 6 0
BBX 5 5 0 0
BITMAP
88
70
50
70
88
ENDCHAR
STARTCHAR yen
ENCODING 165
SWIDTH 250 0
DWIDTH 4 0
BBX 3 5 0 0
BITMAP
A0
A0
40
E0
40
ENDCHAR
STARTCHAR brokenbar
ENCODING 166
SWIDTH 125 0
DWIDTH 2 0
BBX 1 6 0 -1
BITMAP
80
80
00
00
80
80
ENDCHAR
STARTCHAR section
ENCODING 167
SWIDTH 312 0
DWIDTH 5 0
BBX 4 7 0 -2
BITMAP
70
80
E0
90
70
10
E0
ENDCHAR
STARTCHAR dieresis
ENCODING 168
SWIDTH 250 0
DWIDTH 4 0
BBX 3 1 0 4
BITMAP
A0
ENDCHAR
STARTCHAR copyright
ENCODING 169
SWIDTH 187 0
DWIDTH 3 0
BBX 2 2 0 3
BITMAP
80
C0
ENDCHAR
STARTCHAR ordfeminine
ENCODING 170
SWIDTH 562 0
DWIDTH 9 0
BBX 8 7 0 -1
BITMAP
3C
24
24
E7
42
24
18
ENDCHAR
STARTCHAR guillemotleft
ENCODING 171
SWIDTH 312 0
DWIDTH 5 0
BBX 4 4 0 0
BITMAP
50
A0
A0
50
ENDCHAR
STARTCHAR logicalnot
ENCODING 172
SWIDTH 312 0
DWIDTH 5 0
BBX 4 2 0 2
BITMAP
F0
10
ENDCHAR
STARTCHAR registered
ENCODING 174
SWIDTH 187 0
DWIDTH 3 0
BBX 2 2 0 3
BITMAP
80
C0
ENDCHAR
STARTCHAR macron
ENCODING 175
SWIDTH 312 0
DWIDTH 5 0
BBX 4 1 0 4
BITMAP
F0
ENDCHAR
STARTCHAR degree
ENCODING 176
SWIDTH 250 0
DWIDTH 4 0
BBX 3 3 0 2
BITMAP
40
A0
40
ENDCHAR
STARTCHAR plusminus
ENCODING 177
SWIDTH 250 0
DWIDTH 4 0
BBX 3 5 0 0
BITMAP
40
E0
40
00
E0
ENDCHAR
STARTCHAR uni00B2
ENCODING 178
SWIDTH 187 0
DWIDTH 3 0
BBX 2 2 0 3
BITMAP
C0
C0
ENDCHAR
STARTCHAR uni00B3
ENCODING 179
SWIDTH 187 0
DWIDTH 3 0
BBX 2 2 0 3
BITMAP
C0
C0
ENDCHAR
STARTCHAR acute
ENCODING 180
SWIDTH 187 0
DWIDTH 3 0
BBX 2 2 0 3
BITMAP
40
80
ENDCHAR
STARTCHAR uni00B5
ENCODING 181
SWIDTH 312 0
DWIDTH 5 0
BBX 4 6 0 -2
BITMAP
90
90
90
E0
80
80
ENDCHAR
STARTCHAR paragraph
ENCODING 182
SWIDTH 375 0
DWIDTH 6 0
BBX 5 5 0 0
BITMAP
78
E8
68
28
28
ENDCHAR
STARTCHAR periodcentered
ENCODING 183
SWIDTH 187 0
DWIDTH 3 0
BBX 1 1 1 2
BITMAP
80
ENDCHAR
STARTCHAR cedilla
ENCODING 184
SWIDTH 562 0
DWIDTH 9 0
BBX 8 7 0 -1
BITMAP
3C
3C
3C
FF
7E
3C
18
ENDCHAR
STARTCHAR uni00B9
ENCODING 185
SWIDTH 187 0
DWIDTH 3 0
BBX 2 2 0 3
BITMAP
C0
40
ENDCHAR
STARTCHAR ordmasculine
ENCODING 186
SWIDTH 187 0
DWIDTH 3 0
BBX 2 2 0 3
BITMAP
C0
C0
ENDCHAR
STARTCHAR guillemotright
ENCODING 187
SWIDTH 312 0
DWIDTH 5 0
BBX 4 4 0 0
BITMAP
A0
50
50
A0
ENDCHAR
STARTCHAR onequarter
ENCODING 188
SWIDTH 500 0
DWIDTH 8 0
BBX 7 8 0 -2
BITMAP
6E
EE
EC
82
6E
EE
EC
80
ENDCHAR
STARTCHAR onehalf
ENCODING 189
SWIDTH 562 0
DWIDTH 9 0
BBX 8 7 0 -1
BITMAP
18
3C
7E
FF
3C
3C
3C
ENDCHAR
STARTCHAR threequarters
ENCODING 190
SWIDTH 562 0
DWIDTH 9 0
BBX 8 7 0 -1
BITMAP
18
24
42
E7
24
24
3C
ENDCHAR
STARTCHAR questiondown
ENCODING 191
SWIDTH 312 0
DWIDTH 5 0
BBX 4 5 0 -1
BITMAP
20
00
60
80
70
ENDCHAR
STARTCHAR Agrave
ENCODING 192
SWIDTH 312 0
DWIDTH 5 0
BBX 4 6 0 0
BITMAP
40
60
90
F0
90
90
ENDCHAR
STARTCHAR Aacute
ENCODING 193
SWIDTH 312 0
DWIDTH 5 0
BBX 4 6 0 0
BITMAP
20
60
90
F0
90
90
ENDCHAR
STARTCHAR Acircumflex
ENCODING 194
SWIDTH 312 0
DWIDTH 5 0
BBX 4 6 0 0
BITMAP
60
60
90
F0
90
90
ENDCHAR
STARTCHAR Atilde
ENCODING 195
SWIDTH 312 0
DWIDTH 5 0
BBX 4 6 0 0
BITMAP
60
60
90
F0
90
90
ENDCHAR
STARTCHAR Adieresis
ENCODING 196
SWIDTH 312 0
DWIDTH 5 0
BBX 4 6 0 0
BITMAP
90
60
90
F0
90
90
ENDCHAR
STARTCHAR Aring
ENCODING 197
SWIDTH 312 0
DWIDTH 5 0
BBX 4 6 0 0
BITMAP
60
60
90
F0
90
90
ENDCHAR
STARTCHAR AE
ENCODING 198
SWIDTH 437 0
DWIDTH 7 0
BBX 6 5 0 0
BITMAP
3C
50
78
90
9C
ENDCHAR
STARTCHAR Ccedilla
ENCODING 199
SWIDTH 250 0
DWIDTH 4 0
BBX 3 7 0 -2
BITMAP
60
80
80
80
60
20
40
ENDCHAR
STARTCHAR Egrave
ENCODING 200
SWIDTH 250 0
DWIDTH 4 0
BBX 3 6 0 0
BITMAP
40
E0
80
C0
80
E0
ENDCHAR
STARTCHAR Eacute
ENCODING 201
SWIDTH 250 0
DWIDTH 4 0
BBX 3 6 0 0
BITMAP
20
E0
80
C0
80
E0
ENDCHAR
STARTCHAR Ecircumflex
ENCODING 202
SWIDTH 250 0
DWIDTH 4 0
BBX 3 5 0 0
BITMAP
E0
80
C0
80
E0
ENDCHAR
STARTCHAR Edieresis
ENCODING 203
SWIDTH 250 0
DWIDTH 4 0
BBX 3 6 0 0
BITMAP
A0
E0
80
C0
80
E0
ENDCHAR
STARTCHAR Igrave
ENCODING 204
SWIDTH 250 0
DWIDTH 4 0
BBX 3 6 0 0
BITMAP
80
40
E0
40
40
E0
ENDCHAR
STARTCHAR Iacute
ENCODING 205
SWIDTH 250 0
DWIDTH 4 0
BBX 3 6 0 0
BITMAP
20
40
E0
40
40
E0
ENDCHAR
STARTCHAR Icircumflex
ENCODING 206
SWIDTH 250 0
DWIDTH 4 0
BBX 3 6 0 0
BITMAP
40
00
E0
40
40
E0
ENDCHAR
STARTCHAR Idieresis
ENCODING 207
SWIDTH 250 0
DWIDTH 4 0
BBX 3 6 0 0
BITMAP
A0
00
E0
40
40
E0
ENDCHAR
STARTCHAR Eth
ENCODING 208
SWIDTH 687 0
DWIDTH 11 0
BBX 10 5 0 -1
BITMAP
2000
6000
FFC0
6000
2000
ENDCHAR
STARTCHAR Ntilde
ENCODING 209
SWIDTH 312 0
DWIDTH 5 0
BBX 4 6 0 0
BITMAP
60
90
D0
B0
90
90
ENDCHAR
STARTCHAR Ograve
ENCODING 210
SWIDTH 312 0
DWIDTH 5 0
BBX 4 6 0 0
BITMAP
40
60
90
90
90
60
ENDCHAR
STARTCHAR Oacute
ENCODING 211
SWIDTH 312 0
DWIDTH 5 0
BBX 4 6 0 0
BITMAP
20
60
90
90
90
60
ENDCHAR
STARTCHAR Ocircumflex
ENCODING 212
SWIDTH 312 0
DWIDTH 5 0
BBX 4 6 0 0
BITMAP
60
60
90
90
90
60
ENDCHAR
STARTCHAR Otilde
ENCODING 213
SWIDTH 312 0
DWIDTH 5 0
BBX 4 6 0 0
BITMAP
60
60
90
90
90
60
ENDCHAR
STARTCHAR Odieresis
ENCODING 214
SWIDTH 312 0
DWIDTH 5 0
BBX 4 6 0 0
BITMAP
90
60
90
90
90
60
ENDCHAR
STARTCHAR multiply
ENCODING 215
SWIDTH 250 0
DWIDTH 4 0
BBX 3 3 0 1
BITMAP
A0
40
A0
ENDCHAR
STARTCHAR Oslash
ENCODING 216
SWIDTH 375 0
DWIDTH 6 0
BBX 5 7 0 -1
BITMAP
08
78
90
A8
48
F0
80
ENDCHAR
STARTCHAR Ugrave
ENCODING 217
SWIDTH 312 0
DWIDTH 5 0
BBX 4 6 0 0
BITMAP
80
40
90
90
90
60
ENDCHAR
STARTCHAR Uacute
ENCODING 218
SWIDTH 312 0
DWIDTH 5 0
BBX 4 6 0 0
BITMAP
10
20
90
90
90
60
ENDCHAR
STARTCHAR Ucircumflex
ENCODING 219
SWIDTH 312 0
DWIDTH 5 0
BBX 4 6 0 0
BITMAP
60
00
90
90
90
60
ENDCHAR
STARTCHAR Udieresis
ENCODING 220
SWIDTH 312 0
DWIDTH 5 0
BBX 4 6 0 0
BITMAP
90
00
90
90
90
60
ENDCHAR
STARTCHAR Yacute
ENCODING 221
SWIDTH 312 0
DWIDTH 5 0
BBX 4 6 0 0
BITMAP
40
90
90
70
10
60
ENDCHAR
STARTCHAR Thorn
ENCODING 222
SWIDTH 250 0
DWIDTH 4 0
BBX 3 5 0 0
BITMAP
80
C0
A0
C0
80
ENDCHAR
STARTCHAR germandbls
ENCODING 223
SWIDTH 250 0
DWIDTH 4 0
BBX 3 6 0 -1
BITMAP
C0
A0
C0
A0
E0
80
ENDCHAR
STARTCHAR agrave
ENCODING 224
SWIDTH 312 0
DWIDTH 5 0
BBX 4 6 0 0
BITMAP
40
20
70
90
90
70
ENDCHAR
STARTCHAR aacute
ENCODING 225
SWIDTH 312 0
DWIDTH 5 0
BBX 4 6 0 0
BITMAP
10
20
70
90
90
70
ENDCHAR
STARTCHAR acircumflex
ENCODING 226
SWIDTH 312 0
DWIDTH 5 0
BBX 4 6 0 0
BITMAP
60
00
70
90
90
70
ENDCHAR
STARTCHAR atilde
ENCODING 227
SWIDTH 312 0
DWIDTH 5 0
BBX 4 6 0 0
BITMAP
70
00
70
90
90
70
ENDCHAR
STARTCHAR adieresis
ENCODING 228
SWIDTH 312 0
DWIDTH 5 0
BBX 4 6 0 0
BITMAP
50
00
70
90
90
70
ENDCHAR
STARTCHAR aring
ENCODING 229
SWIDTH 312 0
DWIDTH 5 0
BBX 4 6 0 0
BITMAP
20
00
70
90
90
70
ENDCHAR
STARTCHAR ae
ENCODING 230
SWIDTH 500 0
DWIDTH 8 0
BBX 7 4 0 0
BITMAP
7C
96
98
7C
ENDCHAR
STARTCHAR ccedilla
ENCODING 231
SWIDTH 250 0
DWIDTH 4 0
BBX 3 6 0 -2
BITMAP
60
80
80
60
20
40
ENDCHAR
STARTCHAR egrave
ENCODING 232
SWIDTH 312 0
DWIDTH 5 0
BBX 4 6 0 0
BITMAP
40
20
60
B0
C0
60
ENDCHAR
STARTCHAR eacute
ENCODING 233
SWIDTH 312 0
DWIDTH 5 0
BBX 4 6 0 0
BITMAP
20
40
60
B0
C0
60
ENDCHAR
STARTCHAR ecircumflex
ENCODING 234
SWIDTH 312 0
DWIDTH 5 0
BBX 4 6 0 0
BITMAP
60
00
60
B0
C0
60
ENDCHAR
STARTCHAR edieresis
ENCODING 235
SWIDTH 312 0
DWIDTH 5 0
BBX 4 6 0 0
BITMAP
90
00
60
B0
C0
60
ENDCHAR
STARTCHAR igrave
ENCODING 236
SWIDTH 187 0
DWIDTH 3 0
BBX 2 6 0 0
BITMAP
80
40
00
40
40
40
ENDCHAR
STARTCHAR iacute
ENCODING 237
SWIDTH 187 0
DWIDTH 3 0
BBX 2 6 0 0
BITMAP
40
80
00
80
80
80
ENDCHAR
STARTCHAR icircumflex
ENCODING 238
SWIDTH 250 0
DWIDTH 4 0
BBX 3 6 0 0
BITMAP
40
A0
00
40
40
40
ENDCHAR
STARTCHAR idieresis
ENCODING 239
SWIDTH 250 0
DWIDTH 4 0
BBX 3 5 0 0
BITMAP
A0
00
40
40
40
ENDCHAR
STARTCHAR eth
ENCODING 240
SWIDTH 375 0
DWIDTH 6 0
BBX 5 6 0 0
BITMAP
68
10
70
90
90
60
ENDCHAR
STARTCHAR ntilde
ENCODING 241
SWIDTH 312 0
DWIDTH 5 0
BBX 4 6 0 0
BITMAP
E0
00
E0
90
90
90
ENDCHAR
STARTCHAR ograve
ENCODING 242
SWIDTH 312 0
DWIDTH 5 0
BBX 4 6 0 0
BITMAP
40
20
60
90
90
60
ENDCHAR
STARTCHAR oacute
ENCODING 243
SWIDTH 312 0
DWIDTH 5 0
BBX 4 6 0 0
BITMAP
20
40
60
90
90
60
ENDCHAR
STARTCHAR ocircumflex
ENCODING 244
SWIDTH 312 0
DWIDTH 5 0
BBX 4 6 0 0
BITMAP
60
00
60
90
90
60
ENDCHAR
STARTCHAR otilde
ENCODING 245
SWIDTH 312 0
DWIDTH 5 0
BBX 4 6 0 0
BITMAP
F0
00
60
90
90
60
ENDCHAR
STARTCHAR odieresis
ENCODING 246
SWIDTH 312 0
DWIDTH 5 0
BBX 4 6 0 0
BITMAP
90
00
60
90
90
60
ENDCHAR
STARTCHAR divide
ENCODING 247
SWIDTH 375 0
DWIDTH 6 0
BBX 5 5 0 0
BITMAP
20
00
F8
00
20
ENDCHAR
STARTCHAR oslash
ENCODING 248
SWIDTH 312 0
DWIDTH 5 0
BBX 4 6 0 -1
BITMAP
10
60
90
90
60
80
ENDCHAR
STARTCHAR ugrave
ENCODING 249
SWIDTH 312 0
DWIDTH 5 0
BBX 4 6 0 0
BITMAP
80
40
90
90
90
70
ENDCHAR
STARTCHAR uacute
ENCODING 250
SWIDTH 312 0
DWIDTH 5 0
BBX 4 6 0 0
BITMAP
10
20
90
90
90
70
ENDCHAR
STARTCHAR ucircumflex
ENCODING 251
SWIDTH 312 0
DWIDTH 5 0
BBX 4 6 0 0
BITMAP
60
00
90
90
90
70
ENDCHAR
STARTCHAR udieresis
ENCODING 252
SWIDTH 312 0
DWIDTH 5 0
BBX 4 6 0 0
BITMAP
90
00
90
90
90
70
ENDCHAR
STARTCHAR yacute
ENCODING 253
SWIDTH 312 0
DWIDTH 5 0
BBX 4 7 0 -2
BITMAP
10
20
90
90
70
10
60
ENDCHAR
STARTCHAR thorn
ENCODING 254
SWIDTH 687 0
DWIDTH 11 0
BBX 10 6 0 -1
BITMAP
0040
2040
6040
FFC0
6000
2000
ENDCHAR
STARTCHAR ydieresis
ENCODING 255
SWIDTH 312 0
DWIDTH 5 0
BBX 4 7 0 -2
BITMAP
90
00
90
90
70
10
60
ENDCHAR
STARTCHAR Amacron
ENCODING 256
SWIDTH 312 0
DWIDTH 5 0
BBX 4 6 0 0
BITMAP
F0
60
90
F0
90
90
ENDCHAR
STARTCHAR amacron
ENCODING 257
SWIDTH 312 0
DWIDTH 5 0
BBX 4 6 0 0
BITMAP
70
00
70
90
90
70
ENDCHAR
STARTCHAR Abreve
ENCODING 258
SWIDTH 312 0
DWIDTH 5 0
BBX 4 6 0 0
BITMAP
90
60
90
F0
90
90
ENDCHAR
STARTCHAR abreve
ENCODING 259
SWIDTH 312 0
DWIDTH 5 0
BBX 4 6 0 0
BITMAP
90
60
70
90
90
70
ENDCHAR
STARTCHAR Aogonek
ENCODING 260
SWIDTH 312 0
DWIDTH 5 0
BBX 4 7 0 -2
BITMAP
60
90
F0
90
B0
20
10
ENDCHAR
STARTCHAR aogonek
ENCODING 261
SWIDTH 312 0
DWIDTH 5 0
BBX 4 6 0 -2
BITMAP
70
90
90
70
20
10
ENDCHAR
STARTCHAR Cacute
ENCODING 262
SWIDTH 250 0
DWIDTH 4 0
BBX 3 6 0 0
BITMAP
20
60
80
80
80
60
ENDCHAR
STARTCHAR cacute
ENCODING 263
SWIDTH 250 0
DWIDTH 4 0
BBX 3 6 0 0
BITMAP
20
40
60
80
80
60
ENDCHAR
STARTCHAR Ccircumflex
ENCODING 264
SWIDTH 250 0
DWIDTH 4 0
BBX 3 6 0 0
BITMAP
60
60
80
80
80
60
ENDCHAR
STARTCHAR ccircumflex
ENCODING 265
SWIDTH 250 0
DWIDTH 4 0
BBX 3 6 0 0
BITMAP
60
00
60
80
80
60
ENDCHAR
STARTCHAR Cdotaccent
ENCODING 266
SWIDTH 250 0
DWIDTH 4 0
BBX 3 6 0 0
BITMAP
40
00
60
80
80
60
ENDCHAR
STARTCHAR cdotaccent
ENCODING 267
SWIDTH 250 0
DWIDTH 4 0
BBX 3 6 0 0
BITMAP
40
00
60
80
80
60
ENDCHAR
STARTCHAR Ccaron
ENCODING 268
SWIDTH 250 0
DWIDTH 4 0
BBX 3 6 0 0
BITMAP
E0
00
60
80
80
60
ENDCHAR
STARTCHAR ccaron
ENCODING 269
SWIDTH 250 0
DWIDTH 4 0
BBX 3 6 0 0
BITMAP
E0
00
60
80
80
60
ENDCHAR
STARTCHAR Dcaron
ENCODING 270
SWIDTH 312 0
DWIDTH 5 0
BBX 4 6 0 0
BITMAP
F0
00
E0
90
90
E0
ENDCHAR
STARTCHAR dcaron
ENCODING 271
SWIDTH 437 0
DWIDTH 7 0
BBX 6 6 0 0
BITMAP
04
14
70
90
90
70
ENDCHAR
STARTCHAR Dcroat
ENCODING 272
SWIDTH 375 0
DWIDTH 6 0
BBX 5 5 0 0
BITMAP
70
48
E8
48
70
ENDCHAR
STARTCHAR dcroat
ENCODING 273
SWIDTH 312 0
DWIDTH 5 0
BBX 4 6 0 0
BITMAP
20
F0
20
60
A0
60
ENDCHAR
STARTCHAR Emacron
ENCODING 274
SWIDTH 250 0
DWIDTH 4 0
BBX 3 7 0 0
BITMAP
E0
00
E0
80
C0
80
E0
ENDCHAR
STARTCHAR emacron
ENCODING 275
SWIDTH 312 0
DWIDTH 5 0
BBX 4 6 0 0
BITMAP
F0
00
60
B0
C0
60
ENDCHAR
STARTCHAR Ebreve
ENCODING 276
SWIDTH 250 0
DWIDTH 4 0
BBX 3 6 0 0
BITMAP
A0
E0
80
C0
80
E0
ENDCHAR
STARTCHAR ebreve
ENCODING 277
SWIDTH 312 0
DWIDTH 5 0
BBX 4 6 0 0
BITMAP
A0
40
60
B0
C0
60
ENDCHAR
STARTCHAR Edotaccent
ENCODING 278
SWIDTH 250 0
DWIDTH 4 0
BBX 3 6 0 0
BITMAP
40
E0
80
C0
80
E0
ENDCHAR
STARTCHAR edotaccent
ENCODING 279
SWIDTH 312 0
DWIDTH 5 0
BBX 4 6 0 0
BITMAP
40
00
60
B0
C0
60
ENDCHAR
STARTCHAR Eogonek
ENCODING 280
SWIDTH 250 0
DWIDTH 4 0
BBX 3 7 0 -2
BITMAP
E0
80
C0
80
E0
40
20
ENDCHAR
STARTCHAR eogonek
ENCODING 281
SWIDTH 312 0
DWIDTH 5 0
BBX 4 6 0 -2
BITMAP
60
B0
C0
60
40
20
ENDCHAR
STARTCHAR Ecaron
ENCODING 282
SWIDTH 250 0
DWIDTH 4 0
BBX 3 6 0 0
BITMAP
A0
E0
80
C0
80
E0
ENDCHAR
STARTCHAR ecaron
ENCODING 283
SWIDTH 312 0
DWIDTH 5 0
BBX 4 6 0 0
BITMAP
A0
40
60
B0
C0
60
ENDCHAR
STARTCHAR Gcircumflex
ENCODING 284
SWIDTH 312 0
DWIDTH 5 0
BBX 4 6 0 0
BITMAP
70
70
80
B0
90
70
ENDCHAR
STARTCHAR gcircumflex
ENCODING 285
SWIDTH 312 0
DWIDTH 5 0
BBX 4 8 0 -2
BITMAP
70
00
70
90
90
70
10
60
ENDCHAR
STARTCHAR Gbreve
ENCODING 286
SWIDTH 312 0
DWIDTH 5 0
BBX 4 6 0 0
BITMAP
50
70
80
B0
90
70
ENDCHAR
STARTCHAR gbreve
ENCODING 287
SWIDTH 312 0
DWIDTH 5 0
BBX 4 8 0 -2
BITMAP
90
60
70
90
90
70
10
60
ENDCHAR
STARTCHAR Hbar
ENCODING 294
SWIDTH 437 0
DWIDTH 7 0
BBX 6 6 0 0
BITMAP
48
FC
48
78
48
48
ENDCHAR
STARTCHAR kgreenlandic
ENCODING 312
SWIDTH 250 0
DWIDTH 4 0
BBX 3 4 0 0
BITMAP
A0
A0
C0
A0
ENDCHAR
STARTCHAR Lslash
ENCODING 321
SWIDTH 312 0
DWIDTH 5 0
BBX 4 5 0 0
BITMAP
40
60
C0
40
70
ENDCHAR
STARTCHAR lslash
ENCODING 322
SWIDTH 250 0
DWIDTH 4 0
BBX 3 5 0 0
BITMAP
40
40
60
C0
40
ENDCHAR
STARTCHAR ncaron
ENCODING 328
SWIDTH 312 0
DWIDTH 5 0
BBX 4 6 0 0
BITMAP
A0
40
E0
90
90
90
ENDCHAR
STARTCHAR eng
ENCODING 331
SWIDTH 312 0
DWIDTH 5 0
BBX 4 6 0 -2
BITMAP
E0
90
90
90
10
20
ENDCHAR
STARTCHAR OE
ENCODING 338
SWIDTH 437 0
DWIDTH 7 0
BBX 6 5 0 0
BITMAP
7C
90
98
90
7C
ENDCHAR
STARTCHAR Rcommaaccent
ENCODING 342
SWIDTH 375 0
DWIDTH 6 0
BBX 5 6 0 0
BITMAP
80
80
70
48
48
48
ENDCHAR
STARTCHAR rcommaaccent
ENCODING 343
SWIDTH 250 0
DWIDTH 4 0
BBX 3 6 0 -2
BITMAP
A0
C0
80
80
40
80
ENDCHAR
STARTCHAR Tcommaaccent
ENCODING 354
SWIDTH 250 0
DWIDTH 4 0
BBX 3 7 0 -2
BITMAP
E0
40
40
40
40
20
40
ENDCHAR
STARTCHAR tcommaaccent
ENCODING 355
SWIDTH 187 0
DWIDTH 3 0
BBX 2 7 0 -2
BITMAP
80
C0
80
80
C0
40
80
ENDCHAR
STARTCHAR Tbar
ENCODING 358
SWIDTH 375 0
DWIDTH 6 0
BBX 5 5 0 0
BITMAP
F8
20
70
20
20
ENDCHAR
STARTCHAR uring
ENCODING 367
SWIDTH 312 0
DWIDTH 5 0
BBX 4 6 0 0
BITMAP
60
00
90
90
90
70
ENDCHAR
STARTCHAR Uogonek
ENCODING 370
SWIDTH 312 0
DWIDTH 5 0
BBX 4 6 0 -1
BITMAP
90
90
90
90
60
10
ENDCHAR
STARTCHAR uogonek
ENCODING 371
SWIDTH 312 0
DWIDTH 5 0
BBX 4 6 0 -2
BITMAP
90
90
90
70
20
10
ENDCHAR
STARTCHAR Ydieresis
ENCODING 376
SWIDTH 312 0
DWIDTH 5 0
BBX 4 7 0 -2
BITMAP
90
00
90
90
70
10
60
ENDCHAR
STARTCHAR Zacute
ENCODING 377
SWIDTH 250 0
DWIDTH 4 0
BBX 3 5 0 0
BITMAP
E0
20
40
80
E0
ENDCHAR
STARTCHAR zacute
ENCODING 378
SWIDTH 312 0
DWIDTH 5 0
BBX 4 6 0 0
BITMAP
20
40
F0
20
40
F0
ENDCHAR
STARTCHAR Delta
ENCODING 916
SWIDTH 250 0
DWIDTH 4 0
BBX 3 3 0 0
BITMAP
40
A0
E0
ENDCHAR
STARTCHAR alpha
ENCODING 945
SWIDTH 375 0
DWIDTH 6 0
BBX 5 4 0 0
BITMAP
68
90
90
68
ENDCHAR
STARTCHAR beta
ENCODING 946
SWIDTH 312 0
DWIDTH 5 0
BBX 4 6 0 -1
BITMAP
60
90
A0
90
B0
80
ENDCHAR
STARTCHAR gamma
ENCODING 947
SWIDTH 312 0
DWIDTH 5 0
BBX 4 5 0 -2
BITMAP
90
A0
40
40
40
ENDCHAR
STARTCHAR bullet
ENCODING 8226
SWIDTH 187 0
DWIDTH 3 0
BBX 2 2 0 1
BITMAP
C0
C0
ENDCHAR
STARTCHAR perthousand
ENCODING 8240
SWIDTH 375 0
DWIDTH 6 0
BBX 5 5 0 0
BITMAP
A0
20
40
80
A8
ENDCHAR
STARTCHAR Euro
ENCODING 8364
SWIDTH 312 0
DWIDTH 5 0
BBX 4 5 0 0
BITMAP
30
40
E0
40
30
ENDCHAR
STARTCHAR trademark
ENCODING 8482
SWIDTH 312 0
DWIDTH 5 0
BBX 4 2 0 4
BITMAP
F0
B0
ENDCHAR
STARTCHAR arrowleft
ENCODING 8592
SWIDTH 562 0
DWIDTH 9 0
BBX 8 5 0 0
BITMAP
20
40
FF
40
20
ENDCHAR
STARTCHAR arrowup
ENCODING 8593
SWIDTH 375 0
DWIDTH 6 0
BBX 5 7 0 -1
BITMAP
20
70
A8
20
20
20
20
ENDCHAR
STARTCHAR arrowright
ENCODING 8594
SWIDTH 562 0
DWIDTH 9 0
BBX 8 5 0 0
BITMAP
04
02
FF
02
04
ENDCHAR
STARTCHAR arrowdown
ENCODING 8595
SWIDTH 375 0
DWIDTH 6 0
BBX 5 8 0 -2
BITMAP
20
20
20
20
20
A8
70
20
ENDCHAR
STARTCHAR arrowboth
ENCODING 8596
SWIDTH 562 0
DWIDTH 9 0
BBX 8 5 0 0
BITMAP
24
42
FF
42
24
ENDCHAR
STARTCHAR arrowupdn
ENCODING 8597
SWIDTH 375 0
DWIDTH 6 0
BBX 5 8 0 -2
BITMAP
20
70
A8
20
20
A8
70
20
ENDCHAR
STARTCHAR summation
ENCODING 8721
SWIDTH 312 0
DWIDTH 5 0
BBX 4 6 0 -1
BITMAP
F0
40
20
20
40
F0
ENDCHAR
STARTCHAR radical
ENCODING 8730
SWIDTH 375 0
DWIDTH 6 0
BBX 5 6 0 0
BITMAP
38
20
20
A0
60
40
ENDCHAR
STARTCHAR integral
ENCODING 8747
SWIDTH 250 0
DWIDTH 4 0
BBX 3 8 0 -2
BITMAP
20
40
40
E0
40
40
40
80
ENDCHAR
STARTCHAR approxequal
ENCODING 8776
SWIDTH 312 0
DWIDTH 5 0
BBX 4 5 0 0
BITMAP
50
A0
00
50
A0
ENDCHAR
STARTCHAR notequal
ENCODING 8800
SWIDTH 312 0
DWIDTH 5 0
BBX 4 5 0 0
BITMAP
20
F0
60
F0
40
ENDCHAR
STARTCHAR lessequal
ENCODING 8804
SWIDTH 250 0
DWIDTH 4 0
BBX 3 5 0 0
BITMAP
60
80
60
00
E0
ENDCHAR
STARTCHAR greaterequal
ENCODING 8805
SWIDTH 250 0
DWIDTH 4 0
BBX 3 5 0 0
BITMAP
C0
20
C0
00
E0
ENDCHAR
STARTCHAR SF100000
ENCODING 9472
SWIDTH 312 0
DWIDTH 5 0
BBX 4 1 0 2
BITMAP
F0
ENDCHAR
STARTCHAR SF110000
ENCODING 9474
SWIDTH 250 0
DWIDTH 4 0
BBX 1 8 2 -2
BITMAP
80
80
80
80
80
80
80
80
ENDCHAR
STARTCHAR SF010000
ENCODING 9484
SWIDTH 312 0
DWIDTH 5 0
BBX 2 5 2 -2
BITMAP
C0
80
80
80
80
ENDCHAR
STARTCHAR SF030000
ENCODING 9488
SWIDTH 250 0
DWIDTH 4 0
BBX 3 5 0 -2
BITMAP
E0
20
20
20
20
ENDCHAR
STARTCHAR SF020000
ENCODING 9492
SWIDTH 312 0
DWIDTH 5 0
BBX 2 4 2 2
BITMAP
80
80
80
C0
ENDCHAR
STARTCHAR SF040000
ENCODING 9496
SWIDTH 250 0
DWIDTH 4 0
BBX 3 4 0 2
BITMAP
20
20
20
E0
ENDCHAR
STARTCHAR SF080000
ENCODING 9500
SWIDTH 312 0
DWIDTH 5 0
BBX 2 8 2 -2
BITMAP
80
80
80
C0
80
80
80
80
ENDCHAR
STARTCHAR SF090000
ENCODING 9508
SWIDTH 250 0
DWIDTH 4 0
BBX 3 8 0 -2
BITMAP
20
20
20
E0
20
20
20
20
ENDCHAR
STARTCHAR SF060000
ENCODING 9516
SWIDTH 312 0
DWIDTH 5 0
BBX 4 5 0 -2
BITMAP
F0
20
20
20
20
ENDCHAR
STARTCHAR SF070000
ENCODING 9524
SWIDTH 312 0
DWIDTH 5 0
BBX 4 4 0 2
BITMAP
20
20
20
F0
ENDCHAR
STARTCHAR SF050000
ENCODING 9532
SWIDTH 312 0
DWIDTH 5 0
BBX 4 8 0 -2
BITMAP
20
20
20
F0
20
20
20
20
ENDCHAR
STARTCHAR uni3000
ENCODING 12288
SWIDTH 1000 0
DWIDTH 16 0
BBX 1 1 0 0
BITMAP
00
ENDCHAR
STARTCHAR .notdef
ENCODING -1
SWIDTH 365 0
DWIDTH 6 0
BBX 5 11 1 0
BITMAP
F8
88
88
88
88
88
88
88
88
88
F8
ENDCHAR
STARTCHAR .null
ENCODING -1
SWIDTH 0 0
DWIDTH 0 0
BBX 1 1 0 0
BITMAP
00
ENDCHAR
STARTCHAR nonmarkingreturn
ENCODING -1
SWIDTH 333 0
DWIDTH 5 0
BBX 1 1 0 0
BITMAP
00
ENDCHAR
ENDFONT
